<svg xmlns="http://www.w3.org/2000/svg" width="120" height="150" viewBox="-1 -6 12 15">
    <path d="M 0 0 C 0 -2.7614 2.2386 -5 5 -5 C 7.7614 -5 10 -2.7614 10 0 C 10 1.3261 9.4732 2.5979 8.5355 3.5355 C 7.5979 4.4732 7.0711 5.745 7.0711 7.0711 C 7.0711 7.6234 6.6234 8.0711 6.0711 8.0711 L 3.9289 8.0711 C 3.3766 8.0711 2.9289 7.6234 2.9289 7.0711 C 2.9289 5.745 2.4021 4.4732 1.4645 3.5355 C 0.5268 2.5979 0 1.3261 0 0" stroke-width="0.125" stroke="hsl(50 12% 50% / 1)" fill="none"/>
    <path d="M 5.357 8.0711 C 5.357 3.0322 5.9714 1.0021 6.357 0.0711 C 6.7427 -0.86 7.32 -0.6218 7.607 0.0711 C 7.894 0.764 7.569 1.1297 7.107 1.3211 C 5.8819 1.8285 4.5053 1.8285 3.2802 1.3211 C 2.8182 1.1297 2.5251 0.687 2.7802 0.0711 C 3.0353 -0.5449 3.6445 -0.86 4.0302 0.0711 C 4.4136 0.9968 4.5302 3.0613 4.5302 8.0711" stroke-width="0.125" stroke="hsl(50 88% 50% / 1)" fill="none"/>
</svg>