<svg xmlns="http://www.w3.org/2000/svg" width="100" height="100" viewBox="-25 -25 50 50">
    <path d="M 9 0 C 9 -0.1945 9.2705 -0.3835 9.7652 -0.3835 C 11.2894 -0.3835 15.1076 1.9298 15.1076 7.8433 C 15.1076 14.7146 8.8453 22.767 -1.4808 22.767 C -4.4535 22.767 -7.3998 22.0342 -10.0415 20.6284 C -16.0594 17.426 -19.3674 11.4201 -19.3674 5.6207 C -19.3674 -2.8657 -13.2438 -6.6254 -9.8386 -6.6254 C -8.0873 -6.6254 -7.2381 -5.8421 -7.2381 -5.4329 C -7.2381 -5.2836 -7.3454 -5.1872 -7.5258 -5.1872 C -8.1474 -5.1872 -9.6525 -6.4775 -9.6525 -9.3909 C -9.6525 -13.9598 -5.0383 -20.9317 4.3207 -20.9317 C 9.9971 -20.9317 15.6661 -18.0182 19.0831 -12.8318 C 21.0549 -9.8389 22.0728 -6.3798 22.0728 -2.931 C 22.0728 7.0357 14.4618 12.5019 8.7145 12.5019 C 4.3506 12.5019 2.5771 9.943 2.5771 8.9777 C 2.5771 8.7043 2.6934 8.549 2.8484 8.549 C 3.1235 8.549 3.5005 9.0458 3.5005 9.9998 C 3.5005 12.3536 0.528 17.4124 -6.8037 17.4124 C -14.6961 17.4124 -23 10.4483 -23 0 C -23 -1.1462 -22.8921 -2.2884 -22.6786 -3.4106 C -21.0055 -12.2049 -13.6433 -17.4124 -6.8037 -17.4124 C 0.528 -17.4124 3.5005 -12.3536 3.5005 -9.9998 C 3.5005 -9.0458 3.1235 -8.549 2.8484 -8.549 C 2.6934 -8.549 2.5771 -8.7043 2.5771 -8.9777 C 2.5771 -9.943 4.3506 -12.5019 8.7145 -12.5019 C 14.4618 -12.5019 22.0728 -7.0357 22.0728 2.931 C 22.0728 7.1812 20.5272 11.405 17.636 14.7425 C 14.1423 18.7754 9.2037 20.9317 4.3207 20.9317 C -5.0383 20.9317 -9.6525 13.9598 -9.6525 9.3909 C -9.6525 6.4775 -8.1474 5.1872 -7.5258 5.1872 C -7.3454 5.1872 -7.2381 5.2836 -7.2381 5.4329 C -7.2381 5.8421 -8.0873 6.6254 -9.8386 6.6254 C -13.2438 6.6254 -19.3674 2.8657 -19.3674 -5.6207 C -19.3674 -13.393 -13.4258 -21.0893 -4.3449 -22.5395 C -3.3944 -22.6912 -2.4365 -22.767 -1.4808 -22.767 C 8.8453 -22.767 15.1076 -14.7146 15.1076 -7.8433 C 15.1076 -1.9298 11.2894 0.3835 9.7652 0.3835 C 9.2705 0.3835 9 0.1945 9 0 C 9 -0.1945 9.2705 -0.3835 9.7652 -0.3835 C 11.2894 -0.3835 15.1076 1.9298 15.1076 7.8433 C 15.1076 14.7146 8.8453 22.767 -1.4808 22.767 C -4.2753 22.767 -7.0502 22.1194 -9.5729 20.8691 C -15.8652 17.7506 -19.3674 11.5871 -19.3674 5.6207 C -19.3674 -2.8657 -13.2438 -6.6254 -9.8386 -6.6254 C -8.0873 -6.6254 -7.2381 -5.8421 -7.2381 -5.4329 C -7.2381 -5.2836 -7.3454 -5.1872 -7.5258 -5.1872 C -8.1474 -5.1872 -9.6525 -6.4775 -9.6525 -9.3909 C -9.6525 -13.9598 -5.0383 -20.9317 4.3207 -20.9317 C 9.7841 -20.9317 15.2614 -18.2324 18.7225 -13.3588 C 20.9259 -10.2562 22.0728 -6.5919 22.0728 -2.931 C 22.0728 7.0357 14.4618 12.5019 8.7145 12.5019 C 4.3506 12.5019 2.5771 9.943 2.5771 8.9777 C 2.5771 8.7043 2.6934 8.549 2.8484 8.549 C 3.1235 8.549 3.5005 9.0458 3.5005 9.9998 C 3.5005 12.3536 0.528 17.4124 -6.8037 17.4124 C -14.6961 17.4124 -23 10.4483 -23 0 C -23 -1.1556 -22.8904 -2.3071 -22.6734 -3.4381 C -20.989 -12.2179 -13.6349 -17.4124 -6.8037 -17.4124 C 0.528 -17.4124 3.5005 -12.3536 3.5005 -9.9998 C 3.5005 -9.0458 3.1235 -8.549 2.8484 -8.549 C 2.6934 -8.549 2.5771 -8.7043 2.5771 -8.9777 C 2.5771 -9.943 4.3506 -12.5019 8.7145 -12.5019 C 14.4618 -12.5019 22.0728 -7.0357 22.0728 2.931 C 22.0728 7.2359 20.4872 11.5106 17.5294 14.8644 C 14.0391 18.822 9.1508 20.9317 4.3207 20.9317 C -5.0383 20.9317 -9.6525 13.9598 -9.6525 9.3909 C -9.6525 6.4775 -8.1474 5.1872 -7.5258 5.1872 C -7.3454 5.1872 -7.2381 5.2836 -7.2381 5.4329 C -7.2381 5.8421 -8.0873 6.6254 -9.8386 6.6254 C -13.2438 6.6254 -19.3674 2.8657 -19.3674 -5.6207 C -19.3674 -12.487 -14.7255 -19.4581 -6.9861 -21.9132 C -5.1978 -22.4806 -3.3392 -22.767 -1.4808 -22.767 C 8.8453 -22.767 15.1076 -14.7146 15.1076 -7.8433 C 15.1076 -1.9298 11.2894 0.3835 9.7652 0.3835 C 9.2705 0.3835 9 0.1945 9 0" fill="none" stroke-width="0.5" stroke="hsl(0, 0%, 50%)"/>
</svg>