<svg xmlns="http://www.w3.org/2000/svg" width="80" height="100" viewBox="0 0 8 10">
    <path d="M 7 0.375 L 4.9294 8.1024 L 4.6706 9.0683 C 4.6052 9.3123 4.4146 9.5029 4.1706 9.5683 C 3.1533 9.8409 2.0821 9.8409 1.0648 9.5683 C 0.8208 9.5029 0.6302 9.3123 0.5648 9.0683 C 0.4221 8.5357 0.4221 7.9748 0.5648 7.4421 C 0.672 7.042 1.0833 6.8046 1.4834 6.9118 C 2.4963 7.1832 3.4693 7.5863 4.3775 8.1106 C 4.422 8.1363 4.4199 8.0721 4.4465 7.973 L 6.517 0.2456 C 6.5528 0.1122 6.6899 0.0331 6.8232 0.0688 C 6.9566 0.1045 7.0357 0.2416 7 0.375 Z" fill="hsl(0deg, 0%, 50%)"/>
</svg>